<?xml version="1.0" encoding="iso-8859-1"?>
<!-- Generator: Adobe Illustrator 24.1.2, SVG Export Plug-In . SVG Version: 6.00 Build 0)  -->
<svg version="1.1" baseProfile="basic" id="&#x421;&#x43B;&#x43E;&#x439;_1"
	 xmlns="http://www.w3.org/2000/svg" xmlns:xlink="http://www.w3.org/1999/xlink" x="0px" y="0px" viewBox="0 0 32 32"
	 xml:space="preserve">
<path marker-start="none" marker-end="none" style="fill-rule:evenodd;clip-rule:evenodd;fill:#706D67;" d="M10.003,31.003v-4h-2v-4
	h-2v-4h-2v-4h2v-2h2v2h2v-12h2v-2h2v2h2v4h2v2h4v2h4v2h2v14h-2v4H10.003z"/>
<path marker-start="none" marker-end="none" style="fill-rule:evenodd;clip-rule:evenodd;fill:#E6E5E5;" d="M12.003,29.003v-2h-2v-4
	h-2v-4h-2v-4h2v2h2v2h2v-16h2v12h2v-6h2v6h2v-4h2v4h2v-2h2v14h-2v2H12.003z"/>
</svg>