<svg width="32" height="33" viewBox="0 0 32 33" fill="none" xmlns="http://www.w3.org/2000/svg">
<path d="M19 4.66667L18 0L17 4.66667L12 6L17 6.66667L18 12.003L19 6.66667L24 6L19 4.66667Z" fill="white"/>
<path d="M27 10.6667L26 6L25 10.6667L20 12L25 12.6667L26 18.003L27 12.6667L32 12L27 10.6667Z" fill="white"/>
<path d="M24 21.006C18.9382 18.2331 14.7729 14.0677 12 9C9.22709 14.0677 5.06175 18.2331 0 21C5.06773 23.7729 9.23307 27.9382 12 33C14.7729 27.9382 18.9382 23.7729 24 21.006Z" fill="white"/>
</svg>
